HIERARCHY
ROOT Hips
{
    OFFSET   0.000000   0.000000   0.000000
    CHANNELS 6 Xposition Yposition Zposition Zrotation Xrotation Yrotation
    JOINT Chest
    {
        OFFSET   0.000000   8.007230   0.000000
        CHANNELS 3 Zrotation Xrotation Yrotation
        JOINT Chest2
        {
            OFFSET   0.000000  22.077100   0.000000
            CHANNELS 3 Zrotation Xrotation Yrotation
            JOINT Neck
            {
                OFFSET   0.000000  23.254800   0.000000
                CHANNELS 3 Zrotation Xrotation Yrotation
                JOINT Head
                {
                    OFFSET   0.000010  14.370000   1.956600
                    CHANNELS 3 Zrotation Xrotation Yrotation
                    End Site
                    {
                        OFFSET   0.000000  19.566000   0.000000
                    }
                }
            }
            JOINT LeftCollar
            {
                OFFSET   3.911900  19.017000  -0.467062
                CHANNELS 3 Zrotation Xrotation Yrotation
                JOINT LeftShoulder
                {
                    OFFSET  10.383700   0.000000   0.000000
                    CHANNELS 3 Zrotation Xrotation Yrotation
                    JOINT LeftElbow
                    {
                        OFFSET  26.662100   0.001193   0.000835
                        CHANNELS 3 Zrotation Xrotation Yrotation
                        JOINT LeftWrist
                        {
                            OFFSET  28.869000  -0.000058  -0.000075
                            CHANNELS 3 Zrotation Xrotation Yrotation
                            JOINT LeftFinger0
                            {
                                OFFSET   2.044660  -2.323460   3.252850
                                CHANNELS 3 Zrotation Xrotation Yrotation
                                JOINT LeftFinger01
                                {
                                    OFFSET   3.088130   0.000000   0.000000
                                    CHANNELS 3 Zrotation Xrotation Yrotation
                                    JOINT LeftFinger02
                                    {
                                        OFFSET   2.639450   0.000000   0.000000
                                        CHANNELS 3 Zrotation Xrotation Yrotation
                                        End Site
                                        {
                                            OFFSET   2.582190   0.000000   0.000000
                                        }
                                    }
                                }
                            }
                            JOINT LeftFinger1
                            {
                                OFFSET   8.364480   0.000000   3.252850
                                CHANNELS 3 Zrotation Xrotation Yrotation
                                JOINT LeftFinger11
                                {
                                    OFFSET   4.646920   0.000000   0.000000
                                    CHANNELS 3 Zrotation Xrotation Yrotation
                                    JOINT LeftFinger12
                                    {
                                        OFFSET   2.323460   0.000000   0.000000
                                        CHANNELS 3 Zrotation Xrotation Yrotation
                                        End Site
                                        {
                                            OFFSET   2.273050   0.000000   0.000000
                                        }
                                    }
                                }
                            }
                            JOINT LeftFinger2
                            {
                                OFFSET   8.364490   0.000016   1.078090
                                CHANNELS 3 Zrotation Xrotation Yrotation
                                JOINT LeftFinger21
                                {
                                    OFFSET   5.111620   0.000000   0.000000
                                    CHANNELS 3 Zrotation Xrotation Yrotation
                                    JOINT LeftFinger22
                                    {
                                        OFFSET   2.788150   0.000012   0.000000
                                        CHANNELS 3 Zrotation Xrotation Yrotation
                                        End Site
                                        {
                                            OFFSET   2.727660   0.000000   0.000000
                                        }
                                    }
                                }
                            }
                            JOINT LeftFinger3
                            {
                                OFFSET   7.899780   0.000014  -1.078090
                                CHANNELS 3 Zrotation Xrotation Yrotation
                                JOINT LeftFinger31
                                {
                                    OFFSET   4.646930   0.000000   0.000000
                                    CHANNELS 3 Zrotation Xrotation Yrotation
                                    JOINT LeftFinger32
                                    {
                                        OFFSET   2.323470   0.000000   0.000000
                                        CHANNELS 3 Zrotation Xrotation Yrotation
                                        End Site
                                        {
                                            OFFSET   2.273050   0.000000   0.000000
                                        }
                                    }
                                }
                            }
                            JOINT LeftFinger4
                            {
                                OFFSET   7.435090   0.000000  -3.252850
                                CHANNELS 3 Zrotation Xrotation Yrotation
                                JOINT LeftFinger41
                                {
                                    OFFSET   3.717550   0.000000   0.000000
                                    CHANNELS 3 Zrotation Xrotation Yrotation
                                    JOINT LeftFinger42
                                    {
                                        OFFSET   1.858770   0.000000   0.000000
                                        CHANNELS 3 Zrotation Xrotation Yrotation
                                        End Site
                                        {
                                            OFFSET   1.818440   0.000000   0.000000
                                        }
                                    }
                                }
                            }
                        }
                    }
                }
            }
            JOINT RightCollar
            {
                OFFSET  -3.911900  19.017000  -0.467063
                CHANNELS 3 Zrotation Xrotation Yrotation
                JOINT RightShoulder
                {
                    OFFSET -10.383700   0.000023   0.000000
                    CHANNELS 3 Zrotation Xrotation Yrotation
                    JOINT RightElbow
                    {
                        OFFSET -26.662100   0.001246   0.001011
                        CHANNELS 3 Zrotation Xrotation Yrotation
                        JOINT RightWrist
                        {
                            OFFSET -28.869000  -0.000026  -0.000078
                            CHANNELS 3 Zrotation Xrotation Yrotation
                            JOINT RightFinger0
                            {
                                OFFSET  -2.044660  -2.323490   3.252850
                                CHANNELS 3 Zrotation Xrotation Yrotation
                                JOINT RightFinger01
                                {
                                    OFFSET  -3.088130   0.000000   0.000000
                                    CHANNELS 3 Zrotation Xrotation Yrotation
                                    JOINT RightFinger02
                                    {
                                        OFFSET  -2.639460   0.000000   0.000000
                                        CHANNELS 3 Zrotation Xrotation Yrotation
                                        End Site
                                        {
                                            OFFSET  -2.582190   0.000000   0.000000
                                        }
                                    }
                                }
                            }
                            JOINT RightFinger1
                            {
                                OFFSET  -8.364480   0.000000   3.252850
                                CHANNELS 3 Zrotation Xrotation Yrotation
                                JOINT RightFinger11
                                {
                                    OFFSET  -4.646920   0.000000   0.000000
                                    CHANNELS 3 Zrotation Xrotation Yrotation
                                    JOINT RightFinger12
                                    {
                                        OFFSET  -2.323470   0.000000   0.000000
                                        CHANNELS 3 Zrotation Xrotation Yrotation
                                        End Site
                                        {
                                            OFFSET  -2.273050   0.000000   0.000000
                                        }
                                    }
                                }
                            }
                            JOINT RightFinger2
                            {
                                OFFSET  -8.364480   0.000000   1.078090
                                CHANNELS 3 Zrotation Xrotation Yrotation
                                JOINT RightFinger21
                                {
                                    OFFSET  -5.111620   0.000000   0.000000
                                    CHANNELS 3 Zrotation Xrotation Yrotation
                                    JOINT RightFinger22
                                    {
                                        OFFSET  -2.788160   0.000000   0.000000
                                        CHANNELS 3 Zrotation Xrotation Yrotation
                                        End Site
                                        {
                                            OFFSET  -2.727660   0.000000   0.000000
                                        }
                                    }
                                }
                            }
                            JOINT RightFinger3
                            {
                                OFFSET  -7.899780   0.000000  -1.078090
                                CHANNELS 3 Zrotation Xrotation Yrotation
                                JOINT RightFinger31
                                {
                                    OFFSET  -4.646930   0.000000   0.000000
                                    CHANNELS 3 Zrotation Xrotation Yrotation
                                    JOINT RightFinger32
                                    {
                                        OFFSET  -2.323470   0.000000   0.000000
                                        CHANNELS 3 Zrotation Xrotation Yrotation
                                        End Site
                                        {
                                            OFFSET  -2.273050   0.000000   0.000000
                                        }
                                    }
                                }
                            }
                            JOINT RightFinger4
                            {
                                OFFSET  -7.435090   0.000000  -3.252850
                                CHANNELS 3 Zrotation Xrotation Yrotation
                                JOINT RightFinger41
                                {
                                    OFFSET  -3.717550   0.000000   0.000000
                                    CHANNELS 3 Zrotation Xrotation Yrotation
                                    JOINT RightFinger42
                                    {
                                        OFFSET  -1.858760   0.000000   0.000000
                                        CHANNELS 3 Zrotation Xrotation Yrotation
                                        End Site
                                        {
                                            OFFSET  -1.818440   0.000000   0.000000
                                        }
                                    }
                                }
                            }
                        }
                    }
                }
            }
        }
    }
    JOINT LeftHip
    {
        OFFSET   9.783010   0.000000   0.000000
        CHANNELS 3 Zrotation Xrotation Yrotation
        JOINT LeftKnee
        {
            OFFSET   0.000073 -41.789100   0.001749
            CHANNELS 3 Zrotation Xrotation Yrotation
            JOINT LeftAnkle
            {
                OFFSET   0.000111 -41.133200  -0.000179
                CHANNELS 3 Zrotation Xrotation Yrotation
                JOINT LeftToe
                {
                    OFFSET   0.000000  -6.358960  14.674500
                    CHANNELS 3 Zrotation Xrotation Yrotation
                    End Site
                    {
                        OFFSET   0.000000   0.000000   3.913200
                    }
                }
            }
        }
    }
    JOINT RightHip
    {
        OFFSET  -9.783010   0.000000   0.000000
        CHANNELS 3 Zrotation Xrotation Yrotation
        JOINT RightKnee
        {
            OFFSET   0.000424 -41.789200   0.005205
            CHANNELS 3 Zrotation Xrotation Yrotation
            JOINT RightAnkle
            {
                OFFSET   0.000000 -41.133200  -0.000155
                CHANNELS 3 Zrotation Xrotation Yrotation
                JOINT RightToe
                {
                    OFFSET   0.000000  -6.358960  14.674500
                    CHANNELS 3 Zrotation Xrotation Yrotation
                    End Site
                    {
                        OFFSET   0.000000   0.000000   3.913200
                    }
                }
            }
        }
    }
}
MOTION
Frames: 5
Frame Time:   0.016667
 -0.758266  89.600600  -1.544590  -2.900300  -6.307950  -2.730730   1.328770   2.656420  -0.329429   2.677160   5.304470  -0.721663   1.769770   0.523487  -0.023939   2.908210   1.058310  -1.550750  -1.724460  -0.502113  -0.187721 -76.953800  14.704800   2.415360  -2.158680  -1.813570 -14.848900  17.922000 -12.630900   8.291210  42.188600  38.435100 -71.824900 -31.065400  -0.001332  -0.000618 -10.532700   0.000837   0.006171 -32.649000   6.303550  -9.723740 -27.152000   0.000715   0.003165 -19.006400   0.000636  -0.008668 -29.257700  -1.109390   1.979530 -43.913200   0.001300   0.006416 -29.247200   0.001119  -0.002332 -29.933000  -1.132690   1.966300 -44.928600  -0.013746  -0.002355 -29.922500  -0.010966   0.001592 -35.324000  -1.312430   1.851200 -53.017800   0.000801  -0.011200 -35.309900  -0.001708   0.000714   6.671370   0.678172   1.514130  72.387100   7.244810  -6.465430  -0.859870  -7.561540  13.027400 -11.847700  -6.304020  -4.213080 -43.034900  37.610200  75.862900  26.672100   0.005296  -0.005803   8.336020   0.000273  -0.005012  27.151000   5.203860  10.029700  22.588300  -0.002431  -0.008113  15.811800  -0.006286   0.006400  28.453600   2.035230   3.749520  36.490200  -0.005587  -0.003552  24.302500  -0.008634  -0.008526  28.151300   2.014460   3.760710  33.544900  -0.005338  -0.001267  22.341000  -0.005051  -0.005421  37.548600  -0.393704  -0.512123  56.325500  -0.000499  -0.001359  37.512800  -0.001949  -0.005379   3.196090   8.162040   2.473510   1.057750   0.102012   6.503510  -2.710350  -2.928000   1.376710  -0.000000   0.000000   0.000000   2.889090   6.389620  -5.406780  -1.542310   3.300180  -8.071610   1.193650  -4.349300   0.161240   0.000000   0.000000  -0.000000
 -0.748813  89.600500  -1.549760  -2.900910  -6.321150  -2.729530   1.334750   2.672570  -0.329917   2.689310   5.336710  -0.723559   1.812850   0.538332  -0.023856   2.979000   1.088160  -1.589740  -1.724700  -0.502017  -0.179908 -76.942200  14.691600   2.415430  -2.181910  -1.813580 -14.848100  17.910800 -12.630900   8.291290  42.166100  38.424700 -71.800900 -31.086100  -0.001329  -0.000629 -10.543100   0.000835   0.006176 -32.660500   6.291710  -9.700290 -27.159400   0.000715   0.003167 -19.011600   0.000634  -0.008668 -29.258700  -1.122320   2.002740 -43.916300   0.001302   0.006417 -29.248800   0.001120  -0.002332 -29.936600  -1.145840   1.989380 -44.934900  -0.013746  -0.002355 -29.926600  -0.010967   0.001591 -35.332500  -1.327610   1.873000 -53.031300   0.000801  -0.011203 -35.318900  -0.001708   0.000714   6.690820   0.631595   1.523500  72.372800   7.259140  -6.480320  -0.849978  -7.624310  12.995200 -11.847800  -6.279360  -4.228940 -43.075600  37.601400  75.830000  26.640900   0.005290  -0.005782   8.320430   0.000272  -0.004996  27.126100   5.199560  10.029100  22.567800  -0.002434  -0.008116  15.797500  -0.006286   0.006399  28.453600   2.035230   3.749520  36.436600  -0.005586  -0.003531  24.266700  -0.008635  -0.008523  28.144100   2.014460   3.760710  33.495800  -0.005330  -0.001260  22.308300  -0.005050  -0.005415  37.514300  -0.384686  -0.501023  56.274000  -0.000490  -0.001339  37.478500  -0.001930  -0.005374   3.194290   8.175760   2.481700   1.058310   0.088754   6.504080  -2.717140  -2.909700   1.373070   0.000000   0.000000   0.000000   2.875820   6.400880  -5.391390  -1.527470   3.297520  -8.087000   1.191750  -4.349580   0.163565  -0.000000   0.000000   0.000000
 -0.733952  89.600400  -1.557610  -2.901890  -6.346250  -2.726210   1.344830   2.701310  -0.330410   2.709790   5.394110  -0.725485   1.881700   0.564905  -0.023714   3.092170   1.141610  -1.654420  -1.726800  -0.501921  -0.172094 -76.928500  14.678300   2.415640  -2.222720  -1.813620 -14.844100  17.889900 -12.630900   8.291830  42.144600  38.412000 -71.778400 -31.117700  -0.001324  -0.000645 -10.558900   0.000832   0.006185 -32.679700   6.279870  -9.676840 -27.173300   0.000714   0.003169 -19.021300   0.000632  -0.008667 -29.261900  -1.136260   2.026990 -43.923000   0.001307   0.006420 -29.252700   0.001120  -0.002333 -29.945000  -1.160350   2.013300 -44.948200  -0.013748  -0.002356 -29.935500  -0.010969   0.001591 -35.351000  -1.344890   1.895040 -53.059800   0.000801  -0.011209 -35.337900  -0.001708   0.000714   6.728830   0.541014   1.540720  72.338200   7.284950  -6.495380  -0.833944  -7.739570  12.922400 -11.849200  -6.241110  -4.253760 -43.115200  37.596000  75.795400  26.594300   0.005273  -0.005735   8.297150   0.000269  -0.004955  27.102300   5.190590  10.024800  22.547300  -0.002442  -0.008125  15.783100  -0.006281   0.006396  28.453600   2.035230   3.749520  36.382900  -0.005586  -0.003479  24.231000  -0.008635  -0.008515  28.136900   2.014460   3.760710  33.431000  -0.005311  -0.001245  22.265100  -0.005046  -0.005400  37.480100  -0.375668  -0.489924  56.222500  -0.000468  -0.001291  37.444200  -0.001880  -0.005359   3.191530   8.204920   2.489980   1.060320   0.062831   6.508110  -2.732860  -2.875920   1.360930  -0.000000   0.000000   0.000000   2.856580   6.424750  -5.376130  -1.505540   3.290950  -8.113120   1.187880  -4.349850   0.174651  -0.000000   0.000000   0.000000
 -0.724115  89.600300  -1.562380  -2.902590  -6.371710  -2.721010   1.353330   2.727300  -0.329429   2.726990   5.446030  -0.724327   1.930050   0.590837  -0.023562   3.171680   1.193850  -1.706160  -1.733650  -0.504638  -0.175577 -76.926700  14.686700   2.416120  -2.262530  -1.820050 -14.833500  17.869900 -12.627500   8.295760  42.124300  38.404000 -71.784500 -31.140700  -0.001317  -0.000650 -10.570300   0.000842   0.006196 -32.697700   6.285460  -9.680050 -27.188700   0.000718   0.003167 -19.032100   0.000633  -0.008667 -29.268100  -1.137450   2.028210 -43.932400   0.001313   0.006423 -29.258900   0.001121  -0.002332 -29.957300  -1.161940   2.014290 -44.966700  -0.013751  -0.002357 -29.947800  -0.010973   0.001592 -35.377000  -1.347330   1.895320 -53.098700   0.000801  -0.011219 -35.363800  -0.001707   0.000715   6.769140   0.440250   1.554730  72.291800   7.297810  -6.492740  -0.819697  -7.862250  12.825400 -11.883000  -6.218810  -4.268960 -43.122800  37.603700  75.803700  26.568000   0.005245  -0.005675   8.284020   0.000258  -0.004893  27.108500   5.176470   9.997510  22.549400  -0.002457  -0.008139  15.784600  -0.006267   0.006389  28.454200   2.027860   3.735910  36.383200  -0.005583  -0.003400  24.231200  -0.008639  -0.008501  28.137900   2.007070   3.747100  33.412600  -0.005284  -0.001222  22.252900  -0.005041  -0.005377  37.480400  -0.375746  -0.490024  56.223000  -0.000439  -0.001227  37.444500  -0.001801  -0.005333   3.188120   8.242850   2.486170   1.065990   0.025431   6.527990  -2.753310  -2.840200   1.340350  -0.000000   0.000000   0.000000   2.847740   6.453680  -5.384750  -1.494790   3.281480  -8.133990   1.183680  -4.348510   0.201353   0.000000   0.000000  -0.000000
 -0.714994  89.600300  -1.565990  -2.903290  -6.403240  -2.713780   1.361560   2.757140  -0.327633   2.743670   5.505660  -0.722109   1.975860   0.617302  -0.023468   3.247030   1.247130  -1.756380  -1.743750  -0.511247  -0.179059 -76.927500  14.718800   2.416710  -2.306270  -1.840490 -14.822900  17.843300 -12.619100   8.299070  42.094400  38.395900 -71.794800 -31.152700  -0.001312  -0.000651 -10.576300   0.000860   0.006213 -32.714300   6.297960  -9.691400 -27.203600   0.000722   0.003165 -19.042500   0.000634  -0.008666 -29.274400  -1.137620   2.028390 -43.941800   0.001322   0.006428 -29.265300   0.001123  -0.002332 -29.969900  -1.162160   2.014430 -44.985600  -0.013755  -0.002358 -29.960400  -0.010979   0.001592 -35.402900  -1.347680   1.895360 -53.137800   0.000803  -0.011234 -35.389800  -0.001707   0.000717   6.819870   0.326150   1.576950  72.225700   7.336670  -6.473470  -0.808461  -7.981440  12.702200 -11.930900  -6.195270  -4.284690 -43.180100  37.643800  75.869000  26.548900   0.005209  -0.005603   8.274460   0.000239  -0.004818  27.121000   5.167020   9.972520  22.559100  -0.002477  -0.008160  15.791300  -0.006250   0.006382  28.454700   2.020490   3.722290  36.385000  -0.005579  -0.003301  24.232400  -0.008645  -0.008483  28.139200   1.999680   3.733500  33.410000  -0.005250  -0.001196  22.251100  -0.005033  -0.005348  37.482700  -0.376294  -0.490730  56.226300  -0.000403  -0.001147  37.446800  -0.001703  -0.005298   3.183590   8.285450   2.482400   1.071530   0.000698   6.557430  -2.781740  -2.804030   1.308740   0.000000   0.000000  -0.000000   2.840280   6.490660  -5.397440  -1.485660   3.268930  -8.157370   1.177810  -4.344770   0.231316  -0.000000   0.000000  -0.000000
